<svg width="40" height="37" viewBox="0 0 40 37" fill="none" xmlns="http://www.w3.org/2000/svg">
<rect y="33" width="40" height="4" fill="#4C5AFF"/>
<path d="M6.66667 29.75V30.8125C6.66667 31.6979 6.34223 32.4508 5.69334 33.0713C5.04445 33.6918 4.25778 34.0014 3.33334 34C2.40741 34 1.62001 33.6897 0.971116 33.0692C0.322227 32.4487 -0.00147642 31.6965 5.06201e-06 30.8125V15.6187C5.06201e-06 15.3708 0.0185238 15.1229 0.0555608 14.875C0.0925979 14.6271 0.148153 14.3969 0.222227 14.1844L4.38889 2.86875C4.68519 2.01875 5.22223 1.32812 6 0.796874C6.77778 0.265625 7.64815 0 8.61112 0H31.3889C32.3519 0 33.2222 0.265625 34 0.796874C34.7778 1.32812 35.3148 2.01875 35.6111 2.86875L39.7778 14.1844C39.8519 14.3969 39.9074 14.6271 39.9444 14.875C39.9815 15.1229 40 15.3708 40 15.6187V30.8125C40 31.6979 39.6756 32.4508 39.0267 33.0713C38.3778 33.6918 37.5911 34.0014 36.6667 34C35.7407 34 34.9533 33.6897 34.3044 33.0692C33.6556 32.4487 33.3319 31.6965 33.3333 30.8125V29.75H6.66667ZM6.22223 10.625H33.7778L31.4444 4.24999H8.55556L6.22223 10.625ZM10 23.375C10.9259 23.375 11.7133 23.0647 12.3622 22.4442C13.0111 21.8237 13.3348 21.0715 13.3333 20.1875C13.3333 19.3021 13.0089 18.5491 12.36 17.9286C11.7111 17.3081 10.9244 16.9986 10 17C9.07408 17 8.28667 17.3102 7.63778 17.9307C6.98889 18.5512 6.66519 19.3035 6.66667 20.1875C6.66667 21.0729 6.99112 21.8258 7.64001 22.4463C8.28889 23.0668 9.07556 23.3764 10 23.375ZM30 23.375C30.9259 23.375 31.7133 23.0647 32.3622 22.4442C33.0111 21.8237 33.3348 21.0715 33.3333 20.1875C33.3333 19.3021 33.0089 18.5491 32.36 17.9286C31.7111 17.3081 30.9244 16.9986 30 17C29.0741 17 28.2867 17.3102 27.6378 17.9307C26.9889 18.5512 26.6652 19.3035 26.6667 20.1875C26.6667 21.0729 26.9911 21.8258 27.64 22.4463C28.2889 23.0668 29.0756 23.3764 30 23.375Z" fill="#4C5AFF"/>
</svg>
