<svg width="67" height="71" viewBox="0 0 67 71" fill="none" xmlns="http://www.w3.org/2000/svg">
<path d="M0 32.2727H9.13636V38.7273H0V32.2727ZM11.8773 8.06818L7.61364 12.5864L14.0091 19.3636L18.2727 14.8455L11.8773 8.06818ZM36.5455 0H30.4545V9.68182H36.5455V0ZM57.8636 32.2727V38.7273H67V32.2727H57.8636ZM27.4091 67.7727C27.4091 69.7091 28.6273 71 30.4545 71H36.5455C38.3727 71 39.5909 69.7091 39.5909 67.7727V64.5455H27.4091V67.7727ZM55.1227 8.06818L48.7273 14.8455L52.9909 19.3636L59.3864 12.5864L55.1227 8.06818ZM51.7727 35.5C51.7727 42.6 48.1182 49.0545 42.6364 52.2818V58.0909C42.6364 60.0273 41.4182 61.3182 39.5909 61.3182H27.4091C25.5818 61.3182 24.3636 60.0273 24.3636 58.0909V52.2818C18.8818 49.0545 15.2273 42.6 15.2273 35.5C15.2273 24.85 23.45 16.1364 33.5 16.1364C43.55 16.1364 51.7727 24.85 51.7727 35.5ZM45.6818 35.5C45.6818 28.3677 40.2305 22.5909 33.5 22.5909C26.7695 22.5909 21.3182 28.3677 21.3182 35.5C21.3182 42.6323 26.7695 48.4091 33.5 48.4091C40.2305 48.4091 45.6818 42.6323 45.6818 35.5Z" fill="#4D5BFF"/>
</svg>
