<svg width="28" height="30" viewBox="0 0 28 30" fill="none" xmlns="http://www.w3.org/2000/svg">
<path d="M23.8548 25.0693H19.7085V18.4386C19.7085 16.8575 19.677 14.8226 17.5478 14.8226C15.386 14.8226 15.0558 16.5431 15.0558 18.3219V25.0693H10.9095V11.4341H14.8925V13.2927H14.9462C15.5027 12.2211 16.856 11.09 18.8778 11.09C23.079 11.09 23.856 13.9118 23.856 17.5849L23.8548 25.0693ZM6.2265 9.56833C5.91019 9.56848 5.59696 9.50498 5.30472 9.38144C5.01249 9.25791 4.747 9.07677 4.52344 8.8484C4.29989 8.62003 4.12266 8.3489 4.00189 8.05055C3.88113 7.75219 3.81921 7.43245 3.81967 7.10964C3.8199 6.6236 3.96135 6.14854 4.22614 5.74454C4.49092 5.34053 4.86715 5.02574 5.30724 4.83995C5.74734 4.65417 6.23153 4.60574 6.69859 4.7008C7.16565 4.79585 7.5946 5.03012 7.9312 5.37397C8.26781 5.71782 8.49694 6.15582 8.58962 6.63257C8.68231 7.10932 8.63439 7.60342 8.45192 8.05237C8.26945 8.50133 7.96063 8.88499 7.56451 9.15482C7.16839 9.42466 6.70276 9.56856 6.2265 9.56833ZM8.3055 25.0693H4.1475V11.4341H8.3055V25.0693ZM25.9292 0.718262H2.06617C0.924 0.718262 0 1.63982 0 2.77689V27.2351C0 28.3734 0.924 29.2937 2.06617 29.2937H25.9257C27.0667 29.2937 28 28.3734 28 27.2351V2.77689C28 1.63982 27.0667 0.718262 25.9257 0.718262H25.9292Z" fill="white"/>
</svg>
