<svg width="38" height="52" viewBox="0 0 38 52" fill="none" xmlns="http://www.w3.org/2000/svg">
<path d="M19 0C8.77214 0 0.5 8.138 0.5 18.2C0.5 31.85 19 52 19 52C19 52 37.5 31.85 37.5 18.2C37.5 8.138 29.2279 0 19 0ZM5.78571 18.2C5.78571 11.024 11.7057 5.2 19 5.2C26.2943 5.2 32.2143 11.024 32.2143 18.2C32.2143 25.688 24.6029 36.894 19 43.888C13.5029 36.946 5.78571 25.61 5.78571 18.2Z" fill="#4C5AFF"/>
<path d="M19.0002 24.7C22.6492 24.7 25.6074 21.7898 25.6074 18.2C25.6074 14.6101 22.6492 11.7 19.0002 11.7C15.3512 11.7 12.3931 14.6101 12.3931 18.2C12.3931 21.7898 15.3512 24.7 19.0002 24.7Z" fill="#4C5AFF"/>
</svg>
