<svg width="74" height="71" viewBox="0 0 74 71" fill="none" xmlns="http://www.w3.org/2000/svg">
<path d="M47.0905 71H13.4557V63.9025H47.0905V71ZM70.6349 7.09752L54.7088 28.2304L53.9688 29.1885L35.0324 54.7041C34.4074 55.3635 33.6654 55.8866 32.8488 56.2435C32.0322 56.6004 31.157 56.7841 30.2731 56.7841C29.3892 56.7841 28.514 56.6004 27.6974 56.2435C26.8808 55.8866 26.1388 55.3635 25.5138 54.7041C24.8888 54.0447 24.393 53.2618 24.0547 52.4002C23.7165 51.5386 23.5424 50.6152 23.5424 49.6826C23.5424 48.75 23.7165 47.8266 24.0547 46.965C24.393 46.1034 24.8888 45.3206 25.5138 44.6611L70.6349 7.09752ZM5.53467 18.5742C0.676224 26.7844 -1.07118 36.6249 0.640796 46.1339H3.36522V42.5851C3.32857 35.5975 5.31144 28.7642 9.04951 22.996L5.53467 18.5742ZM37.0001 9.55519e-07C31.8562 -0.00120208 26.7691 1.13361 22.066 3.33144C17.3628 5.52927 13.1477 8.74144 9.69193 12.7613L13.5398 17.6018C18.1058 13.172 24.0703 10.6927 30.2731 10.6463C36.5093 10.6921 42.504 13.1958 47.0804 17.6657L59.0208 7.7221C52.6625 2.70861 44.9377 -0.000274689 37.0001 9.55519e-07ZM59.9727 32.6486L59.189 33.6671L56.7403 36.9674C57.0265 38.8249 57.1738 40.7032 57.181 42.5851V46.1339H73.3593C74.9554 37.2527 73.5473 28.0622 69.3803 20.164L59.9727 32.6486Z" fill="#4D5BFF"/>
</svg>
