<svg width="34" height="52" viewBox="0 0 34 52" fill="none" xmlns="http://www.w3.org/2000/svg">
<path d="M29.75 40.1818H4.25V7.09091H29.75M21.8571 47.2727H12.1429V44.9091H21.8571M26.7143 0H7.28571C5.35342 0 3.50027 0.747076 2.13394 2.07688C0.7676 3.40668 0 5.21028 0 7.09091V44.9091C0 46.7897 0.7676 48.5933 2.13394 49.9231C3.50027 51.2529 5.35342 52 7.28571 52H26.7143C28.6466 52 30.4997 51.2529 31.8661 49.9231C33.2324 48.5933 34 46.7897 34 44.9091V7.09091C34 5.21028 33.2324 3.40668 31.8661 2.07688C30.4997 0.747076 28.6466 0 26.7143 0Z" fill="#4C5AFF"/>
</svg>
