<svg width="53" height="36" viewBox="0 0 53 36" fill="none" xmlns="http://www.w3.org/2000/svg">
<path d="M4.4964 5.157C8.21318 1.73475 13.8374 0 21.21 0H23.8592V6.34275L21.7292 6.705C18.0999 7.3215 15.5752 8.53425 14.2241 10.314C13.5192 11.2728 13.1194 12.3706 13.0638 13.5H21.21C21.9126 13.5 22.5864 13.7371 23.0832 14.159C23.5801 14.581 23.8592 15.1533 23.8592 15.75V31.5C23.8592 33.9818 21.4829 36 18.5608 36H2.66582C1.96322 36 1.2894 35.7629 0.79258 35.341C0.295765 34.919 0.0166575 34.3467 0.0166575 33.75V22.5L0.0246051 15.9323C0.000762569 15.6825 -0.502579 9.765 4.4964 5.157ZM47.7017 36H31.8067C31.1041 36 30.4302 35.7629 29.9334 35.341C29.4366 34.919 29.1575 34.3467 29.1575 33.75V22.5L29.1654 15.9323C29.1416 15.6825 28.6383 9.765 33.6372 5.157C37.354 1.73475 42.9782 0 50.3508 0H53V6.34275L50.8701 6.705C47.2407 7.3215 44.7161 8.53425 43.365 10.314C42.66 11.2728 42.2602 12.3706 42.2046 13.5H50.3508C51.0534 13.5 51.7273 13.7371 52.2241 14.159C52.7209 14.581 53 15.1533 53 15.75V31.5C53 33.9818 50.6237 36 47.7017 36Z" fill="#4D5BFF"/>
</svg>
