<svg width="53" height="36" viewBox="0 0 53 36" fill="none" xmlns="http://www.w3.org/2000/svg">
<path d="M4.4964 30.843C8.21318 34.2653 13.8374 36 21.21 36H23.8592V29.6573L21.7292 29.295C18.0999 28.6785 15.5752 27.4658 14.2241 25.686C13.5192 24.7272 13.1194 23.6294 13.0638 22.5H21.21C21.9126 22.5 22.5864 22.2629 23.0832 21.841C23.5801 21.419 23.8592 20.8467 23.8592 20.25V4.5C23.8592 2.01825 21.4829 0 18.5608 0H2.66582C1.96322 0 1.2894 0.237053 0.79258 0.659008C0.295765 1.08096 0.0166575 1.65326 0.0166575 2.25V13.5L0.0246051 20.0677C0.000762569 20.3175 -0.502579 26.235 4.4964 30.843ZM47.7017 0H31.8067C31.1041 0 30.4302 0.237053 29.9334 0.659008C29.4366 1.08096 29.1575 1.65326 29.1575 2.25V13.5L29.1654 20.0677C29.1416 20.3175 28.6383 26.235 33.6372 30.843C37.354 34.2653 42.9782 36 50.3508 36H53V29.6573L50.8701 29.295C47.2407 28.6785 44.7161 27.4658 43.365 25.686C42.66 24.7272 42.2602 23.6294 42.2046 22.5H50.3508C51.0534 22.5 51.7273 22.2629 52.2241 21.841C52.7209 21.419 53 20.8467 53 20.25V4.5C53 2.01825 50.6237 0 47.7017 0Z" fill="#4D5BFF"/>
</svg>
