<svg width="86" height="86" viewBox="0 0 86 86" fill="none" xmlns="http://www.w3.org/2000/svg">
<g filter="url(#filter0_d_1446_13)">
<circle cx="38" cy="38" r="38" transform="matrix(-1 0 0 1 81 5)" fill="white"/>
</g>
<g filter="url(#filter1_i_1446_13)">
<path d="M52.6058 45.695L44.0192 53.3797C43.4167 53.9189 43.1274 54.5481 43.1515 55.2671C43.1756 55.9862 43.4649 56.6153 44.0192 57.1546C44.6218 57.6939 45.3368 57.9752 46.1644 57.9985C46.9919 58.0219 47.7079 57.7631 48.3125 57.222L62.0962 44.8861C62.6987 44.3468 63 43.7177 63 42.9987C63 42.2796 62.6987 41.6505 62.0962 41.1112L48.3125 28.7753C47.7099 28.236 46.9939 27.9781 46.1644 28.0015C45.3348 28.0248 44.6198 28.3052 44.0192 28.8427C43.4669 29.382 43.1777 30.0111 43.1515 30.7302C43.1254 31.4492 43.4147 32.0784 44.0192 32.6176L52.6058 40.3023H19.0128C18.1592 40.3023 17.4431 40.5611 16.8647 41.0788C16.2862 41.5965 15.998 42.2365 16 42.9987C16 43.7626 16.2892 44.4035 16.8677 44.9212C17.4462 45.4389 18.1612 45.6968 19.0128 45.695H52.6058Z" fill="#4D5BFF"/>
</g>
<defs>
<filter id="filter0_d_1446_13" x="0" y="0" width="86" height="86" filterUnits="userSpaceOnUse" color-interpolation-filters="sRGB">
<feFlood flood-opacity="0" result="BackgroundImageFix"/>
<feColorMatrix in="SourceAlpha" type="matrix" values="0 0 0 0 0 0 0 0 0 0 0 0 0 0 0 0 0 0 127 0" result="hardAlpha"/>
<feOffset/>
<feGaussianBlur stdDeviation="2.5"/>
<feComposite in2="hardAlpha" operator="out"/>
<feColorMatrix type="matrix" values="0 0 0 0 0 0 0 0 0 0 0 0 0 0 0 0 0 0 0.25 0"/>
<feBlend mode="normal" in2="BackgroundImageFix" result="effect1_dropShadow_1446_13"/>
<feBlend mode="normal" in="SourceGraphic" in2="effect1_dropShadow_1446_13" result="shape"/>
</filter>
<filter id="filter1_i_1446_13" x="16" y="28" width="47" height="30" filterUnits="userSpaceOnUse" color-interpolation-filters="sRGB">
<feFlood flood-opacity="0" result="BackgroundImageFix"/>
<feBlend mode="normal" in="SourceGraphic" in2="BackgroundImageFix" result="shape"/>
<feColorMatrix in="SourceAlpha" type="matrix" values="0 0 0 0 0 0 0 0 0 0 0 0 0 0 0 0 0 0 127 0" result="hardAlpha"/>
<feOffset/>
<feGaussianBlur stdDeviation="1.5"/>
<feComposite in2="hardAlpha" operator="arithmetic" k2="-1" k3="1"/>
<feColorMatrix type="matrix" values="0 0 0 0 0 0 0 0 0 0 0 0 0 0 0 0 0 0 0.32 0"/>
<feBlend mode="normal" in2="shape" result="effect1_innerShadow_1446_13"/>
</filter>
</defs>
</svg>
