<svg width="32" height="27" viewBox="0 0 32 27" fill="none" xmlns="http://www.w3.org/2000/svg">
<path d="M10.052 26.5622C22.128 26.5622 28.734 16.3511 28.734 7.51154C28.734 7.2258 28.734 6.93598 28.722 6.65024C30.0081 5.70013 31.1181 4.52383 32 3.17646C30.7986 3.71702 29.5255 4.07329 28.222 4.2337C29.5951 3.39615 30.6234 2.07834 31.116 0.525209C29.826 1.30512 28.414 1.85262 26.942 2.14372C25.9524 1.06816 24.6428 0.355638 23.2162 0.116515C21.7895 -0.122609 20.3254 0.125013 19.0507 0.821025C17.7759 1.51704 16.7616 2.6226 16.1649 3.96645C15.5682 5.31031 15.4224 6.81746 15.75 8.25446C13.1395 8.12088 10.5856 7.42881 8.25409 6.22315C5.92254 5.01748 3.86537 3.32514 2.216 1.25589C1.37868 2.7317 1.12315 4.4774 1.50129 6.13849C1.87944 7.79959 2.86291 9.25155 4.252 10.1995C3.21108 10.1634 2.19304 9.8782 1.28 9.36681V9.45865C1.28179 11.0047 1.80661 12.5026 2.76575 13.6994C3.72488 14.8961 5.0595 15.7181 6.544 16.0266C5.98053 16.185 5.39846 16.264 4.814 16.2613C4.40197 16.2626 3.99076 16.2236 3.586 16.145C4.00557 17.4758 4.82255 18.6394 5.92249 19.4728C7.02244 20.3061 8.35027 20.7675 9.72 20.7923C7.39311 22.6574 4.5188 23.6689 1.56 23.664C1.03864 23.6662 0.517646 23.6356 0 23.5721C3.00303 25.5259 6.4906 26.5633 10.052 26.5622Z" fill="white"/>
</svg>
