<svg width="306" height="94" viewBox="0 0 306 94" fill="none" xmlns="http://www.w3.org/2000/svg">
<path d="M0 72.9552L4.33205 68.1851L11.6178 61.4507L25.7954 51.9104L42.9266 44.8955L60.8456 39.003L78.5676 36.7582L93.3359 34.5134L107.12 28.9015L123.66 17.6776L134.097 10.3821L147.88 3.36716L170.722 0L197.896 3.36716L227.826 10.3821L257.757 19.3612L268.39 21.0448L284.34 23.009L292.216 24.9731L299.699 28.3403L305.409 40.406L306 57.2418L303.834 79.1284H302.062V62.5731L300.683 46.2985L299.699 41.2478L296.942 36.4776L291.035 33.9522L283.552 31.7075L268.39 30.0239L249.29 31.7075L239.247 34.2328L229.205 36.7582L213.649 41.5284L211.876 39.8448L219.359 34.2328L225.463 27.7791L226.251 24.9731L224.873 21.0448L219.359 17.6776L197.896 12.0657L174.66 8.13731H159.695L150.637 11.2239L140.988 14.8716L125.629 25.8149L117.359 33.391L108.892 43.7731L81.5212 45.1761L70.6911 47.1403L67.9344 49.3851L68.3282 53.3134L71.2819 56.4L75.417 62.2925L77.583 67.9045L78.1737 71.2716L74.2355 64.8179L70.1004 59.7672L63.9961 55.2776L58.4826 53.3134H53.9537L47.0618 54.997L41.1544 58.3642L36.2317 63.1343L30.9151 72.394L28.3552 84.1791L28.1583 94H26.1892L25.5985 85.0209L26.1892 76.603L27.9614 70.991L30.1274 61.4507L29.3398 57.803L27.3707 57.2418L22.251 59.7672L11.6178 66.7821L0 74.9194V72.9552Z" fill="white"/>
<path d="M235.703 63.1343L243.776 50.2268L254.803 44.3343L264.649 43.7731L274.494 48.5432L281.78 56.6805L287.097 67.6238L289.657 80.8119H288.672C282.174 45.4567 243.973 37.3193 232.749 80.8119V72.394L235.703 63.1343Z" fill="white"/>
</svg>
