<svg width="69" height="71" viewBox="0 0 69 71" fill="none" xmlns="http://www.w3.org/2000/svg">
<path d="M20.7945 14.2C18.7151 14.2 16.9343 13.5042 15.4522 12.1126C13.9701 10.721 13.2304 9.05014 13.2329 7.10001C13.2329 5.14751 13.9739 3.47546 15.456 2.08386C16.9381 0.692255 18.7176 -0.00236064 20.7945 6.02717e-06C22.874 6.02717e-06 24.6547 0.695806 26.1368 2.08741C27.6189 3.47901 28.3587 5.14987 28.3562 7.10001C28.3562 9.05251 27.6151 10.7246 26.133 12.1162C24.651 13.5078 22.8715 14.2024 20.7945 14.2ZM41.589 63.9H17.2027C15.1233 63.9 13.2178 63.2042 11.4861 61.8126C9.75452 60.421 8.6669 58.7501 8.22329 56.8L0 17.75H7.75069L16.0685 56.8H41.589V63.9ZM62.3836 71L51.4192 53.25H25.1425C23.3151 53.25 21.7233 52.7317 20.3673 51.6951C19.0112 50.6585 18.1454 49.2835 17.7699 47.57L13.611 28.5775C12.9178 25.7375 13.6273 23.2229 15.7396 21.0338C17.8518 18.8446 20.419 17.75 23.4411 17.75C25.6466 17.75 27.6479 18.3713 29.445 19.6138C31.2422 20.8563 32.3916 22.5425 32.8932 24.6725L37.0521 42.6H49.3397C50.663 42.6 51.8918 42.9254 53.026 43.5763C54.1603 44.2271 55.074 45.085 55.7671 46.15L69 67.45L62.3836 71Z" fill="#4D5BFF"/>
</svg>
