<svg width="14" height="30" viewBox="0 0 14 30" fill="none" xmlns="http://www.w3.org/2000/svg">
<path d="M9.46818 5.23814C10.8636 5.53158 12.0083 6.12577 12.9909 6.98104C13.2694 7.22346 13.3023 7.65997 13.0669 7.94742L11.8677 9.41138C11.6448 9.68363 11.258 9.72965 10.9792 9.52007C9.89992 8.70873 8.7813 8.32176 7.49687 8.32176C6.0214 8.32176 5.09244 8.97438 5.09244 10.1376C5.09244 11.3292 5.77552 11.8115 8.58989 12.7195C12.0326 13.8544 14 15.3581 14 18.8196C14 21.5646 12.3283 23.6716 9.42809 24.4623C9.1419 24.5404 8.94499 24.8132 8.94499 25.1204V28.3785C8.94499 28.7561 8.65019 29.0622 8.28657 29.0622H6.46123C6.09756 29.0622 5.80281 28.7561 5.80281 28.3785V25.3631C5.80281 25.0232 5.56253 24.7313 5.238 24.6871C3.17809 24.4063 1.57727 23.596 0.377784 22.5562C0.0921262 22.3086 -0.144767 22.1035 0.105666 21.8177L1.74456 19.9478C2.10554 19.536 2.27981 19.741 2.55003 19.958C3.7237 20.9005 5.05627 21.43 6.62255 21.43C8.39854 21.43 9.46427 20.5789 9.46427 19.1601C9.46427 17.7983 8.80833 17.174 6.18536 16.3229C2.08682 15.0177 0.638585 13.2587 0.638585 10.478C0.638585 7.74845 2.51025 5.82651 5.29073 5.21222C5.59103 5.14588 5.80281 5.22277 5.80281 4.9039V1.24417C5.80281 0.866534 6.09761 0.944686 6.46123 0.944686H8.28657C8.65024 0.944686 8.94499 1.25081 8.94499 1.62839V4.57092C8.94499 4.89396 9.16327 5.17405 9.46818 5.23814Z" fill="white"/>
</svg>
