<svg width="29" height="29" viewBox="0 0 29 29" fill="none" xmlns="http://www.w3.org/2000/svg">
<path d="M13.75 28.6666C12.8333 28.6666 11.9094 28.5622 10.9783 28.3533C10.0472 28.1444 9.09611 27.8461 8.125 27.4583C8.45834 24.0972 9.43056 20.9583 11.0417 18.0416C12.6528 15.125 14.7222 12.5555 17.25 10.3333C14.1944 11.8889 11.5483 13.9444 9.31167 16.5C7.075 19.0555 5.51278 21.9722 4.625 25.25C4.51389 25.1666 4.40945 25.0766 4.31167 24.98L4 24.6666C2.69445 23.3611 1.70111 21.9027 1.02 20.2916C0.338892 18.6805 -0.0011084 17 2.71444e-06 15.25C2.71444e-06 13.3611 0.375003 11.5555 1.125 9.8333C1.875 8.11107 2.91667 6.5833 4.25 5.24996C6.5 2.99996 9.41667 1.53496 13 0.854963C16.5833 0.174963 21.6111 0.112185 28.0833 0.666629C28.5833 7.30552 28.5 12.3683 27.8333 15.855C27.1667 19.3416 25.7222 22.1955 23.5 24.4166C22.1389 25.7777 20.6178 26.8266 18.9367 27.5633C17.2556 28.3 15.5267 28.6677 13.75 28.6666Z" fill="#4C5AFF"/>
</svg>
