<svg width="60" height="41" viewBox="0 0 60 41" fill="none" xmlns="http://www.w3.org/2000/svg">
<path d="M0.5 6.83333C0.5 5.02102 1.27701 3.28294 2.66009 2.00144C4.04317 0.719938 5.91903 0 7.875 0H52.125C54.081 0 55.9568 0.719938 57.3399 2.00144C58.723 3.28294 59.5 5.02102 59.5 6.83333V34.1667C59.5 35.979 58.723 37.7171 57.3399 38.9986C55.9568 40.2801 54.081 41 52.125 41H7.875C5.91903 41 4.04317 40.2801 2.66009 38.9986C1.27701 37.7171 0.5 35.979 0.5 34.1667V6.83333ZM7.875 3.41667C6.89701 3.41667 5.95908 3.77664 5.26754 4.41739C4.576 5.05813 4.1875 5.92718 4.1875 6.83333V7.57475L30 21.9247L55.8125 7.57475V6.83333C55.8125 5.92718 55.424 5.05813 54.7325 4.41739C54.0409 3.77664 53.103 3.41667 52.125 3.41667H7.875ZM55.8125 11.5586L38.4517 21.2107L55.8125 31.1087V11.5586ZM55.6871 35.0516L34.8896 23.1923L30 25.9086L25.1104 23.1923L4.31288 35.0482C4.52242 35.7752 4.98517 36.4178 5.62927 36.8763C6.27338 37.3347 7.06281 37.5832 7.875 37.5833H52.125C52.9367 37.5834 53.7258 37.3354 54.3698 36.8776C55.0139 36.4199 55.4769 35.778 55.6871 35.0516ZM4.1875 31.1087L21.5483 21.2107L4.1875 11.5586V31.1087Z" fill="#4C5AFF"/>
</svg>
