<svg width="15" height="12" viewBox="0 0 15 12" fill="none" xmlns="http://www.w3.org/2000/svg">
<path d="M13.5 0C13.8978 0 14.2794 0.147843 14.5607 0.411005C14.842 0.674168 15 1.03109 15 1.40326V9.82282C15 10.195 14.842 10.5519 14.5607 10.8151C14.2794 11.0782 13.8978 11.2261 13.5 11.2261H1.5C1.10218 11.2261 0.720644 11.0782 0.43934 10.8151C0.158035 10.5519 0 10.195 0 9.82282V1.40326C0 0.631467 0.675 0 1.5 0H13.5ZM10.2225 6.38483L15 9.82282V8.41956L11.16 5.6832L15 2.80652V1.40326L7.5 7.0163L0 1.40326V2.80652L3.84 5.6832L0 8.41956V9.82282L4.7775 6.38483L7.5 8.41956L10.2225 6.38483Z" fill="white"/>
</svg>
