<svg width="200" height="136" viewBox="0 0 200 136" fill="none" xmlns="http://www.w3.org/2000/svg">
<path d="M20.4382 29.5828H42.7342L44.194 22.4883L49.1045 18.4725H130.193L135.236 22.4883L136.828 27.8427V37.079H154.878L158.726 41.3625V128.639L155.01 132.922L150.365 136.001H74.1874L50.4316 112.308H20.4382V29.5828Z" fill="black"/>
<path d="M73.9213 11.6457L50.1655 11.6457V-4.19021e-05L124.751 -4.19021e-05V11.6457H100.199V18.4725L73.9213 18.4725V11.6457Z" fill="black"/>
<path d="M0 36.9453L4.64499 31.7247L11.2807 28.9137V66.9297H20.438V74.6936H11.4134L10.4844 111.906L3.05242 106.017V66.9297L0 64.9218V36.9453Z" fill="black"/>
<path d="M165.892 37.749H167.485H193.63L198.805 56.3555L200 75.6312V104.143L196.018 122.75L193.63 129.576H165.76V114.317H158.726V52.4735H165.892V37.749Z" fill="black"/>
</svg>
