<svg width="140" height="141" viewBox="0 0 140 141" fill="none" xmlns="http://www.w3.org/2000/svg">
<path d="M140 107.183C140 109.717 139.514 112.226 138.57 114.568C137.627 116.909 136.243 119.036 134.499 120.828C132.755 122.62 130.685 124.041 128.406 125.011C126.128 125.981 123.686 126.48 121.219 126.48C118.753 126.48 116.311 125.981 114.032 125.011C111.754 124.041 109.684 122.62 107.94 120.828C106.196 119.036 104.812 116.909 103.869 114.568C102.925 112.226 102.439 109.717 102.439 107.183L116.723 107.183C116.723 107.79 116.839 108.39 117.065 108.951C117.291 109.511 117.623 110.021 118.04 110.45C118.458 110.879 118.953 111.219 119.499 111.451C120.044 111.683 120.629 111.803 121.219 111.803C121.81 111.803 122.395 111.683 122.94 111.451C123.486 111.219 123.981 110.879 124.399 110.45C124.816 110.021 125.148 109.511 125.374 108.951C125.599 108.39 125.716 107.79 125.716 107.183H140Z" fill="black"/>
<path d="M83.7634 52.1092C86.2803 49.5785 89.3291 47.795 92.6278 46.924C95.9266 46.0529 99.3686 46.1223 102.635 47.1258C105.902 48.1293 108.888 50.0344 111.318 52.665C113.747 55.2955 115.54 58.5664 116.533 62.175L104.104 66.4232C103.752 65.1419 103.115 63.9805 102.253 63.0466C101.39 62.1126 100.33 61.4361 99.1701 61.0798C98.0101 60.7235 96.788 60.6989 95.6167 61.0081C94.4455 61.3174 93.3629 61.9506 92.4693 62.8492L83.7634 52.1092Z" fill="black"/>
<rect x="102.439" y="61.52" width="14.0379" height="46.2358" fill="black"/>
<path d="M125.962 40.6951H116.856L114.011 39.9309L112.114 38.0203L110.975 35.1545L111.544 32.0976L114.58 28.6585L120.65 22.3537L109.268 10.6992L118.943 1.3374L121.219 2.86586L134.119 15.6667L138.482 21.0163L140 25.9837V107.374H125.962V40.6951Z" fill="black"/>
<ellipse cx="115.339" cy="7.26016" rx="7.20867" ry="7.26016" fill="black"/>
<path d="M8.72632 3C8.72632 1.34315 10.0695 0 11.7263 0H90.3334C91.9902 0 93.3334 1.34315 93.3334 3V141H8.72632V3Z" fill="black"/>
<ellipse cx="7.96748" cy="133.549" rx="7.96748" ry="7.45122" fill="black"/>
<ellipse cx="94.4719" cy="133.549" rx="7.96748" ry="7.45122" fill="black"/>
<rect x="24.2815" y="14.5205" width="53.4959" height="46.2358" rx="2" fill="white"/>
</svg>
