<svg width="27" height="29" viewBox="0 0 27 29" fill="none" xmlns="http://www.w3.org/2000/svg">
<path d="M13.5 8.44126C12.3133 8.44126 11.1533 8.80038 10.1666 9.47322C9.17988 10.1461 8.41085 11.1024 7.95672 12.2213C7.5026 13.3402 7.38378 14.5714 7.61529 15.7592C7.8468 16.947 8.41824 18.038 9.25736 18.8944C10.0965 19.7508 11.1656 20.334 12.3295 20.5702C13.4933 20.8065 14.6997 20.6852 15.7961 20.2218C16.8925 19.7583 17.8295 18.9735 18.4888 17.9665C19.1481 16.9595 19.5 15.7756 19.5 14.5646C19.4983 12.9411 18.8657 11.3846 17.7408 10.2366C16.616 9.08862 15.0908 8.44294 13.5 8.44126ZM13.5 17.6262C12.9067 17.6262 12.3266 17.4467 11.8333 17.1102C11.3399 16.7738 10.9554 16.2957 10.7284 15.7362C10.5013 15.1768 10.4419 14.5612 10.5576 13.9673C10.6734 13.3734 10.9591 12.8278 11.3787 12.3997C11.7982 11.9715 12.3328 11.6799 12.9147 11.5617C13.4967 11.4436 14.0999 11.5042 14.6481 11.736C15.1962 11.9677 15.6648 12.3601 15.9944 12.8636C16.3241 13.3671 16.5 13.959 16.5 14.5646C16.5 15.3766 16.1839 16.1553 15.6213 16.7295C15.0587 17.3037 14.2956 17.6262 13.5 17.6262ZM19.5 0.787109H7.5C5.51159 0.789473 3.60528 1.59665 2.19926 3.03157C0.793236 4.46649 0.00231576 6.41197 0 8.44126V20.6879C0.00231576 22.7172 0.793236 24.6627 2.19926 26.0976C3.60528 27.5325 5.51159 28.3397 7.5 28.342H19.5C21.4884 28.3397 23.3947 27.5325 24.8007 26.0976C26.2068 24.6627 26.9977 22.7172 27 20.6879V8.44126C26.9977 6.41197 26.2068 4.46649 24.8007 3.03157C23.3947 1.59665 21.4884 0.789473 19.5 0.787109ZM24 20.6879C24 21.9059 23.5259 23.074 22.682 23.9353C21.8381 24.7965 20.6935 25.2804 19.5 25.2804H7.5C6.30653 25.2804 5.16193 24.7965 4.31802 23.9353C3.47411 23.074 3 21.9059 3 20.6879V8.44126C3 7.22325 3.47411 6.05513 4.31802 5.19388C5.16193 4.33262 6.30653 3.84877 7.5 3.84877H19.5C20.6935 3.84877 21.8381 4.33262 22.682 5.19388C23.5259 6.05513 24 7.22325 24 8.44126V20.6879ZM22 7.93098C22 8.33467 21.8827 8.7293 21.6629 9.06496C21.4432 9.40061 21.1308 9.66223 20.7654 9.81671C20.3999 9.9712 19.9978 10.0116 19.6098 9.93287C19.2219 9.85411 18.8655 9.65971 18.5858 9.37426C18.3061 9.0888 18.1156 8.72511 18.0384 8.32918C17.9613 7.93324 18.0009 7.52284 18.1522 7.14988C18.3036 6.77692 18.56 6.45814 18.8889 6.23386C19.2178 6.00958 19.6044 5.88987 20 5.88987C20.5304 5.88987 21.0391 6.10492 21.4142 6.4877C21.7893 6.87048 22 7.38964 22 7.93098Z" fill="white"/>
</svg>
