<svg width="86" height="86" viewBox="0 0 86 86" fill="none" xmlns="http://www.w3.org/2000/svg">
<g filter="url(#filter0_d_1446_12)">
<circle cx="43" cy="43" r="38" fill="white"/>
</g>
<g filter="url(#filter1_i_1446_12)">
<path d="M34.3942 45.695L42.9808 53.3797C43.5833 53.9189 43.8726 54.5481 43.8485 55.2671C43.8244 55.9862 43.5351 56.6153 42.9808 57.1546C42.3782 57.6939 41.6632 57.9752 40.8356 57.9985C40.0081 58.0219 39.2921 57.7631 38.6875 57.222L24.9038 44.8861C24.3013 44.3468 24 43.7177 24 42.9987C24 42.2796 24.3013 41.6505 24.9038 41.1112L38.6875 28.7753C39.2901 28.236 40.0061 27.9781 40.8356 28.0015C41.6652 28.0248 42.3802 28.3052 42.9808 28.8427C43.5331 29.382 43.8223 30.0111 43.8485 30.7302C43.8746 31.4492 43.5853 32.0784 42.9808 32.6176L34.3942 40.3023H67.9872C68.8408 40.3023 69.5569 40.5611 70.1353 41.0788C70.7138 41.5965 71.002 42.2365 71 42.9987C71 43.7626 70.7108 44.4035 70.1323 44.9212C69.5538 45.4389 68.8388 45.6968 67.9872 45.695H34.3942Z" fill="#4D5BFF"/>
</g>
<defs>
<filter id="filter0_d_1446_12" x="0" y="0" width="86" height="86" filterUnits="userSpaceOnUse" color-interpolation-filters="sRGB">
<feFlood flood-opacity="0" result="BackgroundImageFix"/>
<feColorMatrix in="SourceAlpha" type="matrix" values="0 0 0 0 0 0 0 0 0 0 0 0 0 0 0 0 0 0 127 0" result="hardAlpha"/>
<feOffset/>
<feGaussianBlur stdDeviation="2.5"/>
<feComposite in2="hardAlpha" operator="out"/>
<feColorMatrix type="matrix" values="0 0 0 0 0 0 0 0 0 0 0 0 0 0 0 0 0 0 0.25 0"/>
<feBlend mode="normal" in2="BackgroundImageFix" result="effect1_dropShadow_1446_12"/>
<feBlend mode="normal" in="SourceGraphic" in2="effect1_dropShadow_1446_12" result="shape"/>
</filter>
<filter id="filter1_i_1446_12" x="24" y="28" width="47" height="30" filterUnits="userSpaceOnUse" color-interpolation-filters="sRGB">
<feFlood flood-opacity="0" result="BackgroundImageFix"/>
<feBlend mode="normal" in="SourceGraphic" in2="BackgroundImageFix" result="shape"/>
<feColorMatrix in="SourceAlpha" type="matrix" values="0 0 0 0 0 0 0 0 0 0 0 0 0 0 0 0 0 0 127 0" result="hardAlpha"/>
<feOffset/>
<feGaussianBlur stdDeviation="1.5"/>
<feComposite in2="hardAlpha" operator="arithmetic" k2="-1" k3="1"/>
<feColorMatrix type="matrix" values="0 0 0 0 0 0 0 0 0 0 0 0 0 0 0 0 0 0 0.32 0"/>
<feBlend mode="normal" in2="shape" result="effect1_innerShadow_1446_12"/>
</filter>
</defs>
</svg>
