<svg width="197" height="184" viewBox="0 0 197 184" fill="none" xmlns="http://www.w3.org/2000/svg">
<path d="M0.207275 121.375L97.0483 64.4263H100.988L197 119.457V127.127L102.233 183.5H96.4262L0.207275 126.552L0.207275 121.375Z" fill="black"/>
<path d="M19.0779 122.067L97.0406 78.2319L98.7074 77.2732L100.212 78.2319L177.507 120.591L180.203 124.251L177.507 126.494L101.214 169.886L98.9147 171.037L96.5397 169.886L19.0779 126.051L17.4189 124.251L19.0779 122.067Z" fill="#F1F1F1"/>
<path d="M0.207275 89.1614L97.0483 32.2131H100.988L197 87.244V94.9138L102.233 151.287H96.4262L0.207275 94.3385L0.207275 89.1614Z" fill="black"/>
<path d="M19.0779 89.8534L97.0406 46.0188L98.7074 45.0601L100.212 46.0188L177.507 88.3775L180.203 92.0376L177.507 94.2811L101.214 137.673L98.9147 138.823L96.5397 137.673L19.0779 93.8383L17.4189 92.0376L19.0779 89.8534Z" fill="#F1F1F1"/>
<path d="M0 56.9483L96.8411 0H100.781L196.793 55.0308V62.7006L102.025 119.074H96.219L1.23601e-08 62.1254L0 56.9483Z" fill="black"/>
<path d="M18.8706 57.6402L96.8333 13.8056L98.5001 12.8469L100.005 13.8056L177.3 56.1643L179.996 59.8245L177.3 62.068L101.007 105.46L98.7075 106.61L96.3324 105.46L18.8706 61.6252L17.2117 59.8245L18.8706 57.6402Z" fill="#F1F1F1"/>
</svg>
