<svg width="115" height="72" viewBox="0 0 115 72" fill="none" xmlns="http://www.w3.org/2000/svg">
<path d="M38.4216 53.8272C42.0013 51.3725 44.719 47.7964 46.1729 43.6277C47.6268 39.4589 47.7396 34.9189 46.4947 30.679C45.2499 26.4391 42.7134 22.7244 39.2604 20.0842C35.8073 17.444 31.6211 16.0186 27.3207 16.0186C23.0203 16.0186 18.8341 17.444 15.3811 20.0842C11.9281 22.7244 9.39156 26.4391 8.1467 30.679C6.90183 34.9189 7.01468 39.4589 8.46856 43.6277C9.92244 47.7964 12.6402 51.3725 16.2198 53.8272C9.74456 56.2855 4.21453 60.8344 0.454895 66.7953C0.257302 67.0978 0.120053 67.4377 0.0511275 67.7954C-0.0177984 68.153 -0.0170267 68.5211 0.0533977 68.8784C0.123822 69.2357 0.262494 69.5751 0.461354 69.8767C0.660214 70.1783 0.915294 70.4362 1.21177 70.6354C1.50824 70.8345 1.84019 70.971 2.18833 71.0369C2.53647 71.1028 2.89384 71.0967 3.23969 71.0191C3.58553 70.9414 3.91294 70.7938 4.20288 70.5846C4.49283 70.3755 4.73953 70.1091 4.92864 69.8009C7.35377 65.9589 10.6722 62.8018 14.5827 60.6162C18.4931 58.4307 22.8717 57.2859 27.3207 57.2859C31.7697 57.2859 36.1483 58.4307 40.0587 60.6162C43.9692 62.8018 47.2877 65.9589 49.7128 69.8009C50.1045 70.4006 50.7097 70.8174 51.3974 70.9613C52.0851 71.1051 52.8002 70.9643 53.3879 70.5694C53.9757 70.1745 54.389 69.5573 54.5384 68.851C54.6879 68.1448 54.5615 67.4063 54.1865 66.7953C50.4269 60.8344 44.8969 56.2855 38.4216 53.8272ZM12.6308 36.6603C12.6308 33.6676 13.4924 30.7422 15.1065 28.2539C16.7207 25.7656 19.0149 23.8262 21.6991 22.6809C24.3834 21.5357 27.337 21.2361 30.1866 21.8199C33.0361 22.4037 35.6536 23.8448 37.708 25.961C39.7625 28.0771 41.1615 30.7732 41.7284 33.7083C42.2952 36.6435 42.0043 39.6859 40.8924 42.4507C39.7806 45.2156 37.8977 47.5787 35.482 49.2414C33.0662 50.904 30.2261 51.7914 27.3207 51.7914C23.4261 51.7869 19.6922 50.1912 16.9383 47.3546C14.1843 44.5179 12.6352 40.6719 12.6308 36.6603ZM82.7884 70.6022C82.1952 71.0007 81.4725 71.1401 80.7794 70.9898C80.0864 70.8396 79.4796 70.4119 79.0926 69.8009C76.6704 65.9566 73.3523 62.7981 69.4411 60.6135C65.5298 58.4288 61.1498 57.2875 56.7005 57.2936C55.9922 57.2936 55.3128 57.0038 54.8119 56.4879C54.311 55.9719 54.0296 55.2722 54.0296 54.5425C54.0296 53.8129 54.311 53.1131 54.8119 52.5972C55.3128 52.0813 55.9922 51.7914 56.7005 51.7914C58.8638 51.7893 61 51.2951 62.9564 50.344C64.9128 49.393 66.6411 48.0086 68.0178 46.2898C69.3946 44.571 70.3858 42.5602 70.9206 40.401C71.4554 38.2419 71.5206 35.9877 71.1116 33.7996C70.7027 31.6115 69.8295 29.5435 68.5546 27.7432C67.2798 25.943 65.6346 24.455 63.7367 23.3856C61.8388 22.3162 59.735 21.6917 57.5756 21.5569C55.4163 21.422 53.2547 21.7801 51.2452 22.6055C50.9176 22.7514 50.5649 22.8282 50.208 22.8313C49.8511 22.8344 49.4972 22.7638 49.1672 22.6236C48.8372 22.4835 48.5378 22.2766 48.2868 22.0152C48.0358 21.7539 47.8381 21.4434 47.7056 21.102C47.573 20.7607 47.5082 20.3954 47.515 20.0278C47.5218 19.6602 47.6001 19.2978 47.7452 18.9619C47.8903 18.626 48.0993 18.3234 48.3598 18.0721C48.6204 17.8208 48.9272 17.6259 49.2621 17.4988C53.8609 15.6096 58.976 15.5416 63.6206 17.3079C68.2652 19.0742 72.1102 22.5497 74.4139 27.0638C76.7175 31.5779 77.3166 36.8108 76.0955 41.753C74.8744 46.6952 71.9197 50.9966 67.8014 53.8272C74.2767 56.2855 79.8067 60.8344 83.5663 66.7953C83.9532 67.4064 84.0886 68.1508 83.9427 68.8647C83.7968 69.5786 83.3816 70.2035 82.7884 70.6022Z" fill="#4D5BFF"/>
<path d="M113.793 10.5798C113.341 10.1586 112.784 9.82129 112.161 9.59029C111.537 9.35929 110.861 9.23989 110.177 9.24H98.9276V6.6C98.9276 4.84957 98.081 3.17084 96.574 1.9331C95.0671 0.695355 93.0233 3.38419e-07 90.8921 3.38419e-07C90.5936 -0.000175231 90.3008 0.0679654 90.0468 0.196782C89.7927 0.325598 89.5874 0.509996 89.4538 0.7293L81.8643 13.2H73.2142C72.3617 13.2 71.5442 13.4781 70.9414 13.9732C70.3386 14.4683 70 15.1398 70 15.84V30.36C70 31.0602 70.3386 31.7317 70.9414 32.2268C71.5442 32.7219 72.3617 33 73.2142 33H107.767C108.941 33.0003 110.075 32.6485 110.957 32.0105C111.838 31.3724 112.405 30.4922 112.552 29.535L114.962 13.695C115.048 13.1373 114.988 12.5711 114.786 12.034C114.584 11.4969 114.246 11.0012 113.793 10.5798ZM73.2142 15.84H81.2496V30.36H73.2142V15.84ZM111.772 13.365L109.362 29.205C109.313 29.5241 109.124 29.8175 108.83 30.0302C108.536 30.2428 108.158 30.3601 107.767 30.36H84.4638V14.8319L91.8383 2.7159C92.9313 2.89558 93.9147 3.38078 94.6212 4.08893C95.3278 4.79709 95.7137 5.68445 95.7134 6.6V10.56C95.7134 10.9101 95.8827 11.2458 96.1841 11.4934C96.4855 11.7409 96.8942 11.88 97.3205 11.88H110.177C110.405 11.8799 110.631 11.9197 110.839 11.9968C111.046 12.0738 111.232 12.1863 111.383 12.3267C111.534 12.4672 111.646 12.6324 111.714 12.8114C111.781 12.9905 111.801 13.1792 111.772 13.365Z" fill="#4D5BFF"/>
</svg>
