<svg width="76" height="75" viewBox="0 0 76 75" fill="none" xmlns="http://www.w3.org/2000/svg">
<path d="M12.7983 25.8122C12.7983 32.1276 15.4257 38.1843 20.1025 42.6499C24.7793 47.1156 31.1223 49.6244 37.7363 49.6244C44.3503 49.6244 50.6933 47.1156 55.3701 42.6499C60.0469 38.1843 62.6742 32.1276 62.6742 25.8122C62.6742 19.4968 60.0469 13.4401 55.3701 8.97443C50.6933 4.50878 44.3503 2 37.7363 2C31.1223 2 24.7793 4.50878 20.1025 8.97443C15.4257 13.4401 12.7983 19.4968 12.7983 25.8122Z" stroke="#4D5BFF" stroke-width="4" stroke-linecap="round" stroke-linejoin="round"/>
<path d="M37.7361 49.6243L51.8676 73L58.5094 60.1692L73.4639 61.0899L59.3324 37.7183M16.1315 37.7183L2 61.0939L16.9545 60.1692L23.5963 72.996L37.7278 49.6243" stroke="#4D5BFF" stroke-width="4" stroke-linecap="round" stroke-linejoin="round"/>
<path d="M23 25.5485L33.5 36.0702L53 16.0288" stroke="#4D5BFF" stroke-width="4"/>
</svg>
