<svg width="63" height="71" viewBox="0 0 63 71" fill="none" xmlns="http://www.w3.org/2000/svg">
<path d="M31.5 71C22.3781 68.9292 14.847 64.21 8.90663 56.8426C2.96625 49.4752 -0.00262326 41.296 1.73918e-06 32.305V10.65L31.5 0L63 10.65V32.305C63 41.2983 60.0298 49.4787 54.0894 56.8461C48.1491 64.2136 40.6193 68.9315 31.5 71ZM31.5 63.545C37.8656 61.77 43.1812 58.2638 47.4469 53.0264C51.7125 47.7889 54.2063 41.9468 54.9281 35.5H31.5V7.54375L7.875 15.5312V33.9025C7.875 34.3167 7.94063 34.8492 8.07188 35.5H31.5V63.545Z" fill="#4D5BFF"/>
</svg>
