<svg width="33" height="40" viewBox="0 0 33 40" fill="none" xmlns="http://www.w3.org/2000/svg">
<path d="M8.99193 1.83231C9.03085 1.63074 9.02981 1.42322 8.98885 1.22207C8.9479 1.02092 8.86788 0.830223 8.75352 0.661286C8.63917 0.49235 8.49281 0.348612 8.32313 0.238593C8.15345 0.128574 7.9639 0.0545134 7.76571 0.0208017C7.56752 -0.01291 7.36473 -0.0055867 7.16936 0.0423373C6.97399 0.0902612 6.79002 0.17781 6.62835 0.299795C6.46668 0.42178 6.3306 0.575717 6.22819 0.752482C6.12577 0.929247 6.05909 1.12524 6.03212 1.32885L0.0284334 38.1677C-0.0104879 38.3693 -0.00944075 38.5768 0.0315124 38.7779C0.0724655 38.9791 0.152491 39.1698 0.266846 39.3387C0.3812 39.5077 0.527556 39.6514 0.697237 39.7614C0.866918 39.8714 1.05647 39.9455 1.25466 39.9792C1.45285 40.0129 1.65563 40.0056 1.851 39.9577C2.04637 39.9097 2.23034 39.8222 2.39202 39.7002C2.55369 39.5782 2.68976 39.4243 2.79218 39.2475C2.8946 39.0708 2.96127 38.8748 2.98825 38.6712L4.99948 26.3301C7.41897 26.6924 10.0336 26.8121 12.0928 28.2887C13.3669 29.225 14.8402 29.8385 16.3915 30.0785C19.2913 30.5267 21.8848 28.8966 24.7486 29.3601L28.618 29.9557C29.3985 30.0785 30.209 29.4645 30.326 28.6663L32.9797 10.4495L32.9917 10.4373C33.0324 10.0362 32.9227 9.63437 32.6848 9.31293C32.4468 8.99149 32.0983 8.77449 31.7099 8.70582L27.8405 8.11026C24.9497 7.67127 22.3501 9.25534 19.4864 8.81634C18.202 8.61687 16.9803 8.11564 15.9172 7.352C13.6988 5.76486 11.0572 5.50084 8.4546 5.12632L8.99493 1.82924L8.99193 1.83231ZM7.22085 12.6936L8.21145 6.63978C10.0096 6.89151 11.9127 7.0358 13.5787 7.77257L12.6932 13.8049C10.9822 13.0896 9.04897 12.9515 7.22085 12.6936ZM5.24864 24.8197L6.23924 18.7598C8.10039 19.0238 10.0726 19.1588 11.8167 19.8895L12.7172 13.8234C14.6924 14.6522 16.1964 16.0736 18.3997 16.4051L19.3003 10.3267C21.5156 10.6675 23.3497 9.78336 25.478 9.60838L24.5775 15.6438C22.4462 15.828 20.6031 16.749 18.3937 16.4113L17.5352 22.4836C15.3258 22.1459 13.8189 20.7184 11.8347 19.8926L10.9341 25.9587C9.14803 25.225 7.1428 25.096 5.24864 24.8197ZM17.5382 22.4866C19.7415 22.8243 21.5937 21.8972 23.725 21.7161L24.5775 15.6438C26.5437 15.4596 28.5549 15.9846 30.4851 16.2854L29.6446 22.3515C27.7114 22.0538 25.6942 21.5257 23.728 21.7161L22.8274 27.7822C20.6991 27.9296 18.82 28.8874 16.6376 28.5497L17.5352 22.4836L17.5382 22.4866Z" fill="#4C5AFF"/>
</svg>
