<svg width="150" height="150" viewBox="0 0 150 150" fill="none" xmlns="http://www.w3.org/2000/svg">
<path d="M23.7807 40.4554L58.2238 56.0033L63.3457 59.1436L62.0653 63.0229L63.8945 64.8702L65.5409 65.4244L67.3701 65.4244L68.1018 66.7175L65.9067 69.8579L64.2604 73.5525L64.4433 78.1707L62.797 78.1707L60.0531 76.6929L57.8579 77.4318L56.9433 80.3875L58.7726 82.7889L51.2725 82.7889L48.3457 80.7569L13.1709 74.6302L13.3538 70.5662L48.3457 73.7372L51.8213 71.89L53.4676 68.3801L53.4676 64.5008L51.2725 60.4368L21.6384 43.9958L23.7807 40.4554Z" fill="white"/>
<path d="M25.8775 112.968L51.5408 85.3556L51.5408 81.487L56.1483 81.487L60.0528 83.5277L61.6889 82.8269L63.1625 80.2026L62.7436 77.6164L64.6259 77.4316L67.0139 82.529L69.0162 83.7124L70.8455 85.0055L74.504 85.5597L79.9918 84.4514L80.9064 87.407L73.7723 87.5917L71.5083 90.3431L71.4857 92.6797L73.9554 94.5151L76.7994 93.55L74.3582 100.712L71.503 102.845L54.4824 134.048L50.5042 132.665L64.9303 100.56L64.3319 96.64L61.5814 93.9256L57.9491 92.6629L53.4294 93.4361L28.3898 116.381L25.8775 112.968Z" fill="white"/>
<path d="M95.438 133.161L76.7238 101.377L76.1502 100.523L71.3941 99.5995L74.4118 95.9483L70.1136 93.3187L71.9429 88.8852L72.1258 92.2104L74.4118 93.8729L76.516 92.9493L77.6136 90.9172L77.4306 89.07L75.2355 87.9616L75.0595 87.0883L78.742 85.7366L79.8087 84.267L82.7355 81.8655L85.2965 77.0626L86.577 77.0626L86.577 81.3113L88.4062 83.1586L90.0526 83.1586L92.0648 81.8655L92.4306 79.0946L90.6014 77.0626L93.7111 76.3236L99.9306 80.203L98.489 83.2888L99.9306 86.1143L125.122 111.761L121.829 115.456L96.0892 92.2103L91.5004 91.9192L88.0459 93.8796L85.7184 97.0602L85.7184 101.377L99.492 131.608L95.438 133.161Z" fill="white"/>
<path d="M92.5469 15.6398L88.1706 52.3529L86.7193 58.078L82.5373 57.9486L81.3118 60.1958L81.2889 61.909L81.8634 63.6407L80.8332 64.6942L77.0839 63.4927L72.9669 62.9653L68.5245 64.4274L68.0075 62.8689L68.5857 59.859L67.1763 57.9872L64.0091 57.9463L62.2437 60.3482L56.9428 56.1879L59.6867 55.0795L60.9489 53.6017L60.6013 51.7544L60.9489 49.9105L55.9732 15.3074L60.1131 14.1216L67.7888 47.9514L70.6802 50.7259L74.6172 51.3048L78.3971 50.2221L81.6676 47.0099L88.3802 14.3682L92.5469 15.6398Z" fill="white"/>
<path d="M136.829 72.5983L99.5885 81.0539L93.6258 81.6526L92.3405 77.7749L89.7791 77.4087L88.1334 77.9649L86.6714 79.0751L85.317 78.4857L85.2025 74.6435L84.3195 70.6914L81.4248 67.1113L77.7969 64.6855L72.4921 64.8703L67.3701 67.4565L66.6384 65.2397L68.8335 63.2077L67.1872 59.5131L62.9799 60.0673L61.3335 58.4048L65.5408 56.5575L77.7969 60.8848L82.9189 65.2397L85.8132 65.2397L87.1262 62.2841L85.8132 59.6979L82.553 59.5131L80.7238 61.7299L82.1872 57.4811L87.8579 52.6782L89.1384 54.8949L92.7516 55.2743L125.854 37.8692L127.866 42.3027L96.9293 60.8848L95.2509 64.4706L96.0239 68.2751L98.3326 71.3756L102.506 73.2915L136.646 68.3495L136.829 72.5983Z" fill="white"/>
<ellipse cx="65.175" cy="62.2842" rx="3.29268" ry="3.32512" fill="#4C5AFF"/>
<ellipse cx="84.1997" cy="62.2842" rx="3.29268" ry="3.32512" fill="#4C5AFF"/>
<ellipse cx="89.6872" cy="80.0179" rx="3.29268" ry="3.32512" fill="#4C5AFF"/>
<ellipse cx="74.6872" cy="90.3634" rx="3.29268" ry="3.32512" fill="#4C5AFF"/>
<ellipse cx="60.0527" cy="80.0179" rx="3.29268" ry="3.32512" fill="#4C5AFF"/>
<path d="M150 75C150 116.421 116.421 150 75 150C33.5786 150 0 116.421 0 75C0 33.5786 33.5786 0 75 0C116.421 0 150 33.5786 150 75ZM13.2969 75C13.2969 109.078 40.9223 136.703 75 136.703C109.078 136.703 136.703 109.078 136.703 75C136.703 40.9223 109.078 13.2969 75 13.2969C40.9223 13.2969 13.2969 40.9223 13.2969 75Z" fill="white"/>
<path d="M144.146 74.8148C144.146 114.094 112.861 145.936 74.2679 145.936C35.6754 145.936 4.38989 114.094 4.38989 74.8148C4.38989 35.536 35.6754 3.69415 74.2679 3.69415C112.861 3.69415 144.146 35.536 144.146 74.8148ZM7.95887 74.8148C7.95887 112.088 37.6465 142.303 74.2679 142.303C110.889 142.303 140.577 112.088 140.577 74.8148C140.577 37.5421 110.889 7.32659 74.2679 7.32659C37.6465 7.32659 7.95887 37.5421 7.95887 74.8148Z" fill="#4C5AFF"/>
</svg>
